# xmcd
#
# Track frame offsets: 
#        150
#        9375
#        23985
#        42595
#        61715
#        77195
#        80580
#        104470
#        114705
#        127405
#        133292
#        156605
#        178697
#        186652
#        190442
#        205790
#        218907
#        241360
#        269407
#
# Disc length: 3845 seconds
#
# Revision: 3
# Processed by: cddbd v1.5.2PL0 Copyright (c) Steve Scherf et al.
# Submitted via: ExactAudioCopy v0.99pb4
#
DISCID=2b0f0313
DTITLE=The Beatnuts - A Musical Massacre
DYEAR=1999
DGENRE=Hip-Hop
TTITLE0=Intro
TTITLE1=Beatnuts 4 Ever [feat. Triple Seis and Marion "Perro" Manson]
TTITLE2=Muchachacha [feat. Willie Stubz and Swinger]
TTITLE3=I Love It
TTITLE4=Slam Pit [feat. Cuban Link and Common]
TTITLE5=Wild Wild What!
TTITLE6=Look Around [feat. Dead Prez and Cheryl Pepsi Riley]
TTITLE7=Coca Tasa [feat. Tony Touch]
TTITLE8=Monster For Music
TTITLE9=Spelling Beatnuts With Lil' Donny
TTITLE10=Puffin' On A Cloud
TTITLE11=Turn It Out [feat. Greg Nice]
TTITLE12=Rated R [feat. Nogoodus]
TTITLE13=Who You're Fuckin' Wit
TTITLE14=Story 2000 [feat. Patrick Blazy]
TTITLE15=Watch Out Now
TTITLE16=You're A Clown [feat. Biz Markie and Tyler Fernandez]
TTITLE17=Buddah In The Air [feat. Carl Thomas and Gob Goblin Of The Nogo
TTITLE17=odus]
TTITLE18=Se Acaba (It's Over) [feat. Magic Juan From Proyecto Uno and Sw
TTITLE18=inger]
EXTD=YEAR: 1999
EXTT0=
EXTT1=
EXTT2=
EXTT3=
EXTT4=
EXTT5=
EXTT6=
EXTT7=
EXTT8=
EXTT9=
EXTT10=
EXTT11=
EXTT12=
EXTT13=
EXTT14=
EXTT15=
EXTT16=
EXTT17=
EXTT18=
PLAYORDER=
